<svg width="172" height="44" viewBox="0 0 172 44" fill="none" xmlns="http://www.w3.org/2000/svg">
<path d="M0 21.9806C0 5.49515 5.49999 0 22 0C38.4999 0 43.9999 5.49515 43.9999 21.9806C43.9999 38.466 38.4999 43.9612 22 43.9612C5.49999 43.9612 0 38.466 0 21.9806Z" fill="#156CF7"/>
<mask id="mask0_5774_15940" style="mask-type:alpha" maskUnits="userSpaceOnUse" x="0" y="0" width="44" height="45">
<path d="M0 22.0197C0 5.53421 5.49999 0.0390625 22 0.0390625C38.4999 0.0390625 43.9999 5.53421 43.9999 22.0197C43.9999 38.5051 38.4999 44.0003 22 44.0003C5.49999 44.0003 0 38.5051 0 22.0197Z" fill="white"/>
</mask>
<g mask="url(#mask0_5774_15940)">
<path d="M-11.8877 43.9845C7.27461 3.96987 27.9653 38.9121 50.5572 -10.7969L55.8878 -6.48538L53.3494 53.3683H-2.24174L-11.8877 43.9845Z" fill="white" fill-opacity="0.05"/>
<path d="M5.72827 39.9694C16.8 16.8494 28.7549 37.0387 41.8082 8.31738L44.8882 10.8085L43.4215 45.3913H11.3016L5.72827 39.9694Z" fill="white" fill-opacity="0.05"/>
</g>
<path fill-rule="evenodd" clip-rule="evenodd" d="M10.742 22.5744C10.742 22.5437 10.7441 22.5133 10.7445 22.4826H7.70191C7.70156 22.5133 7.69946 22.5437 7.69946 22.5744C7.69946 25.572 8.67406 28.3498 10.3253 30.6278C10.7584 30.2795 11.3121 30.0704 11.9154 30.0704C13.3036 30.0704 14.4287 31.1757 14.4287 32.5397C14.4287 33.1183 14.2247 33.6492 13.8855 34.0701C16.104 35.5694 18.7749 36.4719 21.6543 36.539V33.5644C15.607 33.385 10.742 28.526 10.742 22.5744ZM13.2791 31.0578C12.4921 30.3234 11.2646 30.3706 10.538 31.1625C9.81143 31.9544 9.86034 33.192 10.6473 33.9259C11.4344 34.6602 12.6619 34.6131 13.3884 33.8212C14.115 33.0293 14.0661 31.7921 13.2791 31.0578ZM21.9995 11.5767C27.9874 11.5767 32.8974 16.1687 33.2366 21.9378H36.2827C35.9816 15.4169 31.0838 10.0481 24.6874 8.85412C24.5655 10.0819 23.381 11.0463 21.9352 11.0463C20.4981 11.0463 19.3181 10.0938 19.1843 8.87646C12.8498 10.1168 8.01525 15.4598 7.71623 21.9374H10.7623C11.1015 16.1687 16.0111 11.5767 21.9995 11.5767ZM32.0842 30.188C32.6651 30.188 33.1993 30.3758 33.6296 30.6882C35.3077 28.399 36.2994 25.5986 36.2994 22.5744C36.2994 22.5437 36.2973 22.5133 36.297 22.4826H33.2544C33.2548 22.5133 33.2569 22.5437 33.2569 22.5744C33.2569 28.5679 28.3231 33.4537 22.2157 33.5668V36.5407C25.107 36.4985 27.7936 35.6151 30.0282 34.1283C29.7082 33.7169 29.5168 33.208 29.5168 32.6548C29.5164 31.2926 30.666 30.188 32.0842 30.188ZM30.5532 31.2818C29.8262 32.0737 29.8755 33.3113 30.6625 34.0453C31.4495 34.7796 32.677 34.7325 33.4036 33.9406C34.1302 33.1487 34.0813 31.9111 33.2943 31.1771C32.5073 30.4428 31.2801 30.4896 30.5532 31.2818ZM23.6116 9.8488C24.4667 8.94102 24.409 7.523 23.483 6.68154C22.557 5.84007 21.1129 5.89382 20.2581 6.8016C19.403 7.70937 19.4606 9.1274 20.3867 9.96886C21.3127 10.8103 22.7564 10.7566 23.6116 9.8488Z" fill="white"/>
<path fill-rule="evenodd" clip-rule="evenodd" d="M25.3717 30.1336C25.4535 30.2826 25.6397 30.337 25.7878 30.255C25.9359 30.173 25.9897 29.9852 25.9079 29.8362L23.0467 23.7303C23.419 23.4905 23.7125 23.1265 23.84 22.6731C23.9147 22.4075 23.9214 22.1409 23.8777 21.8879L26.8906 18.9112C27.0271 18.7765 27.1194 18.6152 27.1672 18.4442C27.265 18.0973 27.1787 17.7134 26.907 17.4443C26.5021 17.044 25.8377 17.0506 25.4231 17.46L22.4071 20.4398C21.8597 20.3505 21.0088 20.7546 20.7971 21.1853L14.8164 19.5153C14.2586 19.374 13.6102 19.33 13.481 20.0311C13.4446 20.228 13.5669 20.6869 14.1251 20.8293L20.3496 22.7077C20.5246 23.3143 20.9766 23.8277 21.5757 23.9805C21.8834 24.0591 22.1926 24.0461 22.4839 23.9725L25.3717 30.1336ZM21.8596 22.9758C21.4422 22.8694 21.197 22.4443 21.314 22.0293C21.4307 21.6143 21.8663 21.3627 22.2837 21.4691C22.7011 21.5756 22.9464 22.0007 22.8293 22.4157C22.7123 22.8313 22.2771 23.0823 21.8596 22.9758Z" fill="white"/>
<path d="M65.682 15.514H58.136V20.376H64.912C65.44 20.376 65.858 20.794 65.858 21.322C65.858 21.85 65.44 22.246 64.912 22.246H58.136V28.12C58.136 28.67 57.674 29.11 57.124 29.11C56.574 29.11 56.134 28.67 56.134 28.12V14.656C56.134 14.106 56.574 13.644 57.124 13.644H65.682C66.21 13.644 66.628 14.062 66.628 14.59C66.628 15.118 66.21 15.514 65.682 15.514ZM71.714 17.56C74.926 17.56 76.312 19.738 76.312 21.894V28.12C76.312 28.67 75.85 29.11 75.3 29.11C74.75 29.11 74.31 28.67 74.31 28.12V27.548C73.518 28.362 72.242 29.22 70.174 29.22C68.26 29.22 66.588 27.988 66.588 25.92C66.588 23.852 68.216 22.356 71.648 22.356H74.31V22.18C74.31 20.222 73.342 19.452 71.362 19.452C70.13 19.452 69.25 19.716 68.436 19.98C68.348 20.002 68.238 20.024 68.15 20.024C67.71 20.024 67.336 19.672 67.336 19.188C67.336 18.814 67.534 18.506 67.908 18.352C68.942 17.912 70.152 17.56 71.714 17.56ZM70.922 27.46C72.286 27.46 73.562 26.668 74.31 25.81V23.962H71.912C69.844 23.962 68.59 24.446 68.59 25.7C68.59 26.646 69.14 27.46 70.922 27.46ZM92.8491 17.56C95.4451 17.56 96.5231 19.826 96.5231 21.784V28.12C96.5231 28.67 96.0611 29.11 95.5111 29.11C94.9611 29.11 94.5211 28.67 94.5211 28.12V22.18C94.5211 20.332 93.9491 19.408 92.2771 19.408C90.6051 19.408 89.7031 20.53 89.1091 21.52V28.12C89.1091 28.67 88.6471 29.11 88.0971 29.11C87.5471 29.11 87.1071 28.67 87.1071 28.12V22.18C87.1071 20.332 86.5351 19.408 84.8631 19.408C83.1911 19.408 82.2891 20.53 81.6951 21.52V28.12C81.6951 28.67 81.2331 29.11 80.6831 29.11C80.1331 29.11 79.6931 28.67 79.6931 28.12V18.682C79.6931 18.132 80.1331 17.67 80.6831 17.67C81.2331 17.67 81.6951 18.132 81.6951 18.682V19.584C82.3111 18.726 83.3451 17.56 85.4351 17.56C87.1951 17.56 88.3391 18.682 88.8011 19.826C89.3071 18.99 90.4291 17.56 92.8491 17.56ZM100.988 17.67C101.56 17.67 102 18.11 102 18.682V28.12C102 28.67 101.56 29.11 100.988 29.11C100.438 29.11 99.9979 28.67 99.9979 28.12V18.682C99.9979 18.11 100.438 17.67 100.988 17.67ZM102.198 14.282C102.198 14.304 102.198 14.348 102.198 14.37C102.198 14.986 101.692 15.492 101.076 15.492C101.054 15.492 101.032 15.492 100.944 15.492C100.328 15.492 99.8219 14.986 99.8219 14.37C99.8219 14.348 99.8219 14.348 99.8219 14.282C99.8219 13.666 100.328 13.16 100.944 13.16C100.988 13.16 101.032 13.16 101.076 13.16C101.692 13.16 102.198 13.666 102.198 14.282ZM106.726 12.83C107.298 12.83 107.738 13.27 107.738 13.842V28.12C107.738 28.67 107.298 29.11 106.726 29.11C106.176 29.11 105.736 28.67 105.736 28.12V13.842C105.736 13.27 106.176 12.83 106.726 12.83ZM120.843 18.682C120.843 18.814 120.821 18.946 120.777 19.056L114.771 33.488C114.595 33.884 114.309 34.17 113.847 34.17C113.319 34.17 112.901 33.73 112.901 33.202C112.901 33.092 112.923 32.96 112.967 32.85L114.397 29.176L110.261 19.1C110.217 18.99 110.173 18.836 110.173 18.682C110.173 18.132 110.613 17.67 111.163 17.67C111.581 17.67 111.933 17.934 112.087 18.286L115.475 26.69L118.929 18.33C119.105 17.934 119.413 17.67 119.853 17.67C120.403 17.67 120.843 18.132 120.843 18.682ZM132.51 13.644C133.038 13.644 133.456 14.062 133.456 14.59C133.456 15.118 133.038 15.514 132.51 15.514H128.044V28.12C128.044 28.67 127.582 29.11 127.032 29.11C126.482 29.11 126.042 28.67 126.042 28.12V15.514H121.554C121.026 15.514 120.63 15.118 120.63 14.59C120.63 14.062 121.026 13.644 121.554 13.644H132.51ZM136.373 17.67C136.945 17.67 137.385 18.11 137.385 18.682V28.12C137.385 28.67 136.945 29.11 136.373 29.11C135.823 29.11 135.383 28.67 135.383 28.12V18.682C135.383 18.11 135.823 17.67 136.373 17.67ZM137.583 14.282C137.583 14.304 137.583 14.348 137.583 14.37C137.583 14.986 137.077 15.492 136.461 15.492C136.439 15.492 136.417 15.492 136.329 15.492C135.713 15.492 135.207 14.986 135.207 14.37C135.207 14.348 135.207 14.348 135.207 14.282C135.207 13.666 135.713 13.16 136.329 13.16C136.373 13.16 136.417 13.16 136.461 13.16C137.077 13.16 137.583 13.666 137.583 14.282ZM154.101 17.56C156.697 17.56 157.775 19.826 157.775 21.784V28.12C157.775 28.67 157.313 29.11 156.763 29.11C156.213 29.11 155.773 28.67 155.773 28.12V22.18C155.773 20.332 155.201 19.408 153.529 19.408C151.857 19.408 150.955 20.53 150.361 21.52V28.12C150.361 28.67 149.899 29.11 149.349 29.11C148.799 29.11 148.359 28.67 148.359 28.12V22.18C148.359 20.332 147.787 19.408 146.115 19.408C144.443 19.408 143.541 20.53 142.947 21.52V28.12C142.947 28.67 142.485 29.11 141.935 29.11C141.385 29.11 140.945 28.67 140.945 28.12V18.682C140.945 18.132 141.385 17.67 141.935 17.67C142.485 17.67 142.947 18.132 142.947 18.682V19.584C143.563 18.726 144.597 17.56 146.687 17.56C148.447 17.56 149.591 18.682 150.053 19.826C150.559 18.99 151.681 17.56 154.101 17.56ZM169.742 26.58C170.204 26.58 170.622 26.932 170.622 27.438C170.622 27.79 170.358 28.076 170.05 28.252C169.082 28.802 168.114 29.22 166.2 29.22C162.614 29.22 160.502 27.086 160.502 23.39C160.502 20.42 162.108 17.56 165.76 17.56C169.148 17.56 170.996 20.178 170.996 23.104C170.996 23.654 170.6 24.094 169.984 24.094H162.526C162.746 26.074 164 27.35 166.376 27.35C167.696 27.35 168.532 27.086 169.346 26.668C169.478 26.602 169.588 26.58 169.742 26.58ZM165.76 19.254C164.352 19.254 162.658 20.178 162.526 22.466H169.016C168.884 20.178 167.168 19.254 165.76 19.254Z" fill="#333333"/>
</svg>
